Run_20001
nRows=4
nColumns=164

# SIMM Motion File Header:
name Run_20001
datacolumns 164
datarows 4
otherdata 1
range 1.59166700 1.61666700
endheader
time	pelvis_tilt	pelvis_list	pelvis_rotation	pelvis_tx	pelvis_ty	pelvis_tz	hip_flexion_r	hip_adduction_r	hip_rotation_r	knee_angle_r	ankle_angle_r	hip_flexion_l	hip_adduction_l	hip_rotation_l	knee_angle_l	ankle_angle_l	lumbar_extension	lumbar_bending	lumbar_rotation	arm_flex_r	arm_add_r	arm_rot_r	elbow_flex_r	pro_sup_r	arm_flex_l	arm_add_l	arm_rot_l	elbow_flex_l	pro_sup_l	subtalar_angle_r	mtp_angle_r	subtalar_angle_l	mtp_angle_l	wrist_flex_r	wrist_dev_r	wrist_flex_l	wrist_dev_l	LASI_tx	LASI_ty	LASI_tz	RASI_tx	RASI_ty	RASI_tz	LPSI_tx	LPSI_ty	LPSI_tz	RPSI_tx	RPSI_ty	RPSI_tz	RTH1_tx	RTH1_ty	RTH1_tz	RTH2_tx	RTH2_ty	RTH2_tz	RTH3_tx	RTH3_ty	RTH3_tz	LTH1_tx	LTH1_ty	LTH1_tz	LTH2_tx	LTH2_ty	LTH2_tz	LTH3_tx	LTH3_ty	LTH3_tz	RTB1_tx	RTB1_ty	RTB1_tz	RTB2_tx	RTB2_ty	RTB2_tz	RTB3_tx	RTB3_ty	RTB3_tz	LTB1_tx	LTB1_ty	LTB1_tz	LTB2_tx	LTB2_ty	LTB2_tz	LTB3_tx	LTB3_ty	LTB3_tz	RCAL_tx	RCAL_ty	RCAL_tz	RTOE_tx	RTOE_ty	RTOE_tz	RMT5_tx	RMT5_ty	RMT5_tz	LCAL_tx	LCAL_ty	LCAL_tz	LTOE_tx	LTOE_ty	LTOE_tz	LMT5_tx	LMT5_ty	LMT5_tz	LACR_tx	LACR_ty	LACR_tz	RACR_tx	RACR_ty	RACR_tz	CLAV_tx	CLAV_ty	CLAV_tz	C7_tx	C7_ty	C7_tz	RUA1_tx	RUA1_ty	RUA1_tz	RUA2_tx	RUA2_ty	RUA2_tz	RUA3_tx	RUA3_ty	RUA3_tz	RLEL_tx	RLEL_ty	RLEL_tz	RMEL_tx	RMEL_ty	RMEL_tz	LUA1_tx	LUA1_ty	LUA1_tz	LUA2_tx	LUA2_ty	LUA2_tz	LUA3_tx	LUA3_ty	LUA3_tz	LLEL_tx	LLEL_ty	LLEL_tz	LMEL_tx	LMEL_ty	LMEL_tz	RFAsuperior_tx	RFAsuperior_ty	RFAsuperior_tz	RFAradius_tx	RFAradius_ty	RFAradius_tz	RFAulna_tx	RFAulna_ty	RFAulna_tz	LFAsuperior_tx	LFAsuperior_ty	LFAsuperior_tz	LFAradius_tx	LFAradius_ty	LFAradius_tz	LFAulna_tx	LFAulna_ty	LFAulna_tz
      1.59166700	      1.62844705	      1.60322351	      6.10836504	      0.49604921	      1.00816026	     -0.31070085	     18.84362426	     -0.20867188	     -0.48043588	    -17.74117846	     -2.11343728	     -6.60930143	      3.36565567	     -2.16124607	    -44.14782846	    -14.80230598	    -13.00164240	      2.94666759	    -14.63838472	    -28.37074208	    -26.86878746	     -3.12192888	    106.58382237	     67.73245117	    -15.08212640	    -28.83798968	     10.67894148	    123.38735046	     94.95472795	      0.00000000	      0.00000000	      0.00000000	      0.00000000	      0.00000000	      0.00000000	      0.00000000	      0.00000000	      0.49603891	      1.03032948	     -0.42895653	      0.50272863	      1.04232980	     -0.18994610	      0.33394193	      1.05901591	     -0.34258356	      0.33876151	      1.05888819	     -0.25484126	      0.51621343	      0.85475117	     -0.14254870	      0.60111370	      0.75583277	     -0.18826127	      0.55928319	      0.61480091	     -0.17843211	      0.43934293	      0.87567187	     -0.47076054	      0.47620179	      0.75639899	     -0.46092549	      0.38642556	      0.62874769	     -0.44495254	      0.64186021	      0.41880070	     -0.24359215	      0.61004512	      0.35157394	     -0.18738350	      0.63192385	      0.24088499	     -0.25869979	      0.32411796	      0.39698459	     -0.36969940	      0.21052236	      0.35936358	     -0.40352089	      0.17369227	      0.28818559	     -0.32747364	      0.52848556	      0.09797252	     -0.26397700	      0.74629304	      0.10410602	     -0.28387184	      0.72237415	      0.07689145	     -0.19181256	      0.02490693	      0.30585263	     -0.30925462	      0.12066350	      0.11236354	     -0.30635153	      0.06533648	      0.11369033	     -0.38210528	      0.50368694	      1.47903436	     -0.46725480	      0.44093447	      1.46739408	     -0.09433353	      0.55440557	      1.44281758	     -0.23834534	      0.43835681	      1.53645589	     -0.28455413	      0.38635037	      1.37690223	     -0.03193789	      0.38970958	      1.30456677	     -0.02913933	      0.28567074	      1.31241835	     -0.01471069	      0.28480629	      1.22724978	      0.02793877	      0.24662289	      1.21338569	     -0.05212507	      0.48099429	      1.41401165	     -0.53032651	      0.40854107	      1.36149789	     -0.54319359	      0.46877243	      1.32359624	     -0.57729951	      0.44269639	      1.22267674	     -0.62624809	      0.37240175	      1.18853510	     -0.57618462	      0.35849472	      1.18920759	      0.02692901	      0.50202764	      1.12075602	     -0.02679573	      0.46003824	      1.06796937	     -0.02317476	      0.50534565	      1.21999760	     -0.59085465	      0.59356290	      1.20553174	     -0.43686594	      0.60204960	      1.14729749	     -0.46496142
      1.60000000	      2.11447082	      1.75235020	      5.80175135	      0.49710121	      1.00431417	     -0.30994843	     17.89520938	     -0.14556122	     -1.37267114	    -18.09925825	     -3.15422074	     -5.36326226	      3.14893738	     -2.88717478	    -48.55040551	    -13.82435406	    -13.50909570	      2.80147205	    -14.10916891	    -27.77304652	    -26.99375921	     -3.22896539	    106.68287142	     67.71637329	    -15.78516005	    -28.54639648	     10.25915347	    123.36982223	     95.00439615	      0.00000000	      0.00000000	      0.00000000	      0.00000000	      0.00000000	      0.00000000	      0.00000000	      0.00000000	      0.49703483	      1.02715320	     -0.42793847	      0.50339502	      1.03844785	     -0.18914385	      0.33465974	      1.05424440	     -0.34242965	      0.33926801	      1.05342104	     -0.25466290	      0.51486689	      0.84842456	     -0.14187394	      0.60021438	      0.74989043	     -0.18690141	      0.55544783	      0.60801048	     -0.17848731	      0.44366231	      0.87214971	     -0.47095255	      0.48300505	      0.75337098	     -0.46204315	      0.39654975	      0.62364500	     -0.44832045	      0.63761881	      0.41154379	     -0.24365062	      0.60431023	      0.34403819	     -0.18868688	      0.62687263	      0.23353893	     -0.26027651	      0.33225098	      0.39441341	     -0.37292456	      0.21700753	      0.36159564	     -0.40618002	      0.17811725	      0.29436009	     -0.32764113	      0.51961934	      0.09733554	     -0.26806215	      0.73799124	      0.09152982	     -0.28447344	      0.71183231	      0.07011720	     -0.19167685	      0.02906387	      0.31656556	     -0.30948039	      0.11803920	      0.11984642	     -0.30987156	      0.06169398	      0.12395805	     -0.38545451	      0.50286128	      1.47445505	     -0.46679979	      0.44222442	      1.46217735	     -0.09355500	      0.55496967	      1.43827836	     -0.23826778	      0.43870135	      1.53190295	     -0.28365483	      0.38851902	      1.37128881	     -0.03070253	      0.39260829	      1.29903400	     -0.02780625	      0.28849149	      1.30598112	     -0.01306488	      0.28861533	      1.22097890	      0.02988022	      0.25018185	      1.20646537	     -0.05003326	      0.47921500	      1.40961814	     -0.52955292	      0.40611052	      1.35765645	     -0.54169105	      0.46570296	      1.31940427	     -0.57653714	      0.43834007	      1.21876804	     -0.62540302	      0.36841142	      1.18518874	     -0.57447252	      0.36276636	      1.18382913	      0.02868637	      0.50697835	      1.11714327	     -0.02557632	      0.46558064	      1.06390296	     -0.02161093	      0.50146217	      1.21541406	     -0.59098826	      0.59149628	      1.20007748	     -0.43777776	      0.59884592	      1.14197854	     -0.46622900
      1.60833300	      2.57483749	      1.74969401	      5.43165390	      0.49790064	      0.99977232	     -0.30898086	     17.14311969	      0.14780021	     -1.93562508	    -19.16328799	     -2.81071315	     -4.02251730	      2.69814984	     -3.69647028	    -52.97158273	    -12.32763261	    -13.99427214	      2.78375704	    -13.45298928	    -27.05715433	    -27.17136627	     -3.28855271	    106.72799010	     67.87587427	    -16.48585180	    -28.21855961	      9.78763627	    123.30122329	     95.03165399	      0.00000000	      0.00000000	      0.00000000	      0.00000000	      0.00000000	      0.00000000	      0.00000000	      0.00000000	      0.49806291	      1.02328124	     -0.42712908	      0.50399412	      1.03359844	     -0.18802289	      0.33527073	      1.04848171	     -0.34236948	      0.33963169	      1.04714528	     -0.25446977	      0.51358715	      0.84188874	     -0.14171850	      0.59917737	      0.74339654	     -0.18478299	      0.55174694	      0.60116828	     -0.17889605	      0.44767121	      0.86784924	     -0.47078499	      0.48981633	      0.74984832	     -0.46309302	      0.40681813	      0.61814426	     -0.45181559	      0.63348473	      0.40411898	     -0.24458660	      0.59814844	      0.33659839	     -0.19078118	      0.61937418	      0.22597194	     -0.26285736	      0.34095565	      0.39164289	     -0.37649989	      0.22412032	      0.36376974	     -0.40903390	      0.18300939	      0.29974062	     -0.32907195	      0.50694475	      0.09719903	     -0.27103400	      0.72572031	      0.08154802	     -0.28539788	      0.69819040	      0.06556752	     -0.19152357	      0.03382547	      0.32666236	     -0.30943240	      0.11757005	      0.12777465	     -0.31384658	      0.06045883	      0.13478983	     -0.38940864	      0.50175171	      1.46902095	     -0.46635017	      0.44352961	      1.45625974	     -0.09275460	      0.55561490	      1.43302251	     -0.23829065	      0.43892261	      1.52655541	     -0.28277713	      0.39090293	      1.36486540	     -0.02941968	      0.39565208	      1.29273071	     -0.02655032	      0.29159649	      1.29864560	     -0.01112522	      0.29283149	      1.21383381	      0.03206730	      0.25413213	      1.19857579	     -0.04763238	      0.47711836	      1.40434440	     -0.52876640	      0.40337777	      1.35301200	     -0.54017131	      0.46229398	      1.31440426	     -0.57577278	      0.43354171	      1.21419859	     -0.62463486	      0.36406982	      1.18108800	     -0.57275255	      0.36748650	      1.17766420	      0.03060556	      0.51229113	      1.11292722	     -0.02453496	      0.47163038	      1.05908177	     -0.01994833	      0.49705430	      1.21013289	     -0.59101472	      0.58920187	      1.19388760	     -0.43906571	      0.59543207	      1.13585377	     -0.46786570
      1.61666700	      2.96520622	      1.54004513	      4.93326352	      0.49815057	      0.99458316	     -0.30760438	     16.77208336	      0.76377955	     -1.97723548	    -21.05681439	     -0.85392505	     -2.49570150	      1.95610527	     -4.57825125	    -57.42173833	    -10.61269763	    -14.45572254	      2.93125407	    -12.57565803	    -26.19377414	    -27.38131097	     -3.29995373	    106.71011313	     68.19673312	    -17.11944628	    -27.86765520	      9.28915742	    123.16281028	     95.04005081	      0.00000000	      0.00000000	      0.00000000	      0.00000000	      0.00000000	      0.00000000	      0.00000000	      0.00000000	      0.49922980	      1.01874081	     -0.42647004	      0.50425522	      1.02753908	     -0.18663137	      0.33555402	      1.04179662	     -0.34223836	      0.33918120	      1.04013843	     -0.25407925	      0.51205069	      0.83582885	     -0.14159854	      0.59785398	      0.73711693	     -0.18195370	      0.54886058	      0.59526367	     -0.17962415	      0.45150248	      0.86259751	     -0.47021105	      0.49669051	      0.74579826	     -0.46405866	      0.41740121	      0.61228213	     -0.45526999	      0.62955352	      0.39755563	     -0.24692970	      0.59232832	      0.33051393	     -0.19356915	      0.60949766	      0.21952590	     -0.26637186	      0.35033711	      0.38869283	     -0.38036805	      0.23194065	      0.36597140	     -0.41195118	      0.18817766	      0.30371800	     -0.33237496	      0.49140160	      0.09710000	     -0.27264828	      0.71032073	      0.07595620	     -0.28648566	      0.68242012	      0.06362055	     -0.19175539	      0.03977951	      0.33630017	     -0.30958121	      0.11903534	      0.13578118	     -0.31818095	      0.06144953	      0.14568064	     -0.39370089	      0.50042265	      1.46286531	     -0.46596299	      0.44492799	      1.44985096	     -0.09184617	      0.55653477	      1.42705567	     -0.23840829	      0.43893318	      1.52038161	     -0.28197337	      0.39356098	      1.35763548	     -0.02808954	      0.39885114	      1.28569274	     -0.02541492	      0.29500034	      1.29049921	     -0.00894430	      0.29746950	      1.20587788	      0.03448468	      0.25851369	      1.18981419	     -0.04495094	      0.47472291	      1.39826689	     -0.52799703	      0.40034021	      1.34763073	     -0.53859008	      0.45857921	      1.30865968	     -0.57501506	      0.42833027	      1.20905792	     -0.62393871	      0.35947369	      1.17632363	     -0.57104706	      0.37266078	      1.17079921	      0.03262810	      0.51793247	      1.10812986	     -0.02372985	      0.47811976	      1.05356052	     -0.01826922	      0.49211301	      1.20425092	     -0.59080391	      0.58665425	      1.18698933	     -0.44072616	      0.59182507	      1.12893733	     -0.46986107
